<?xml version="1.0" encoding="utf-8"?>
<!-- Generator: Adobe Illustrator 24.0.0, SVG Export Plug-In . SVG Version: 6.00 Build 0)  -->
<svg version="1.1" id="Capa_1" xmlns="http://www.w3.org/2000/svg" xmlns:xlink="http://www.w3.org/1999/xlink" x="0px" y="0px"
	 viewBox="0 0 1125 2436" style="enable-background:new 0 0 1125 2436;" xml:space="preserve">
<g>
	<g>
		<path d="M718.78,216.08c-37.71,0.13-75.4,5.31-111.7,15.57c-36.27,10.25-71.2,25.56-102.9,46c-31.12,20.06-59.2,45.11-81.76,74.52
			c-22.29,29.07-38.93,62.43-49.2,97.58c-10.21,34.93-14.17,71.84-10.71,108.1c3.51,36.74,14.77,72.4,33.77,104.08
			c21.78,36.33,51.7,67.55,82.87,95.94c31.28,28.5,65.28,54.02,101.37,76.11c35.98,22.02,74.12,41.17,114.63,53.3
			c38.99,11.68,80.7,16.81,120.94,8.8c9.87-1.96,19.56-4.74,28.99-8.26c1.43-0.53,1.41-2.35,0-2.89
			c-54.9-21.04-108.33-50.78-147.88-95.08c-19.23-21.54-34.71-46.31-44.01-73.73c-8.8-25.95-12.46-53.76-9.82-81.08
			c2.96-30.68,14.38-60.45,34.74-83.8c-0.71,0-1.41,0-2.12,0c15.5,19.83,40.98,30.76,66.03,28.36c0.85-0.08,1.86-0.91,1.45-1.9
			c-9.83-23.6-31.88-37.94-47.95-56.84c-9.31-10.95-15.81-23.69-17.47-38.1c-1.75-15.18,1.3-30.51,6.25-44.83
			c9.41-27.24,25.39-52.8,42.77-75.64c16.69-21.93,36.38-42.09,59.43-57.36c24.99-16.56,53.85-26.63,84.05-25.71
			c1.49,0.05,2.04-2.08,0.76-2.8c-48.18-26.89-102.21-42.9-157.26-46.67c-15.76-1.08-31.56-1.13-47.33-0.2c-1.92,0.11-1.93,3.11,0,3
			c54.7-3.23,109.88,5.81,160.73,26.21c14.54,5.83,28.67,12.63,42.34,20.26c0.25-0.93,0.5-1.86,0.76-2.8
			c-56.31-1.71-104.51,33.54-138.77,75.31c-18.16,22.14-34.28,46.96-45.59,73.32c-11.6,27.03-17.82,58.99-1.87,85.66
			c15.23,25.48,44.63,40.07,56.26,67.99c0.48-0.63,0.96-1.27,1.45-1.9c-24.37,2.34-48.83-8.2-63.91-27.48
			c-0.48-0.61-1.64-0.56-2.12,0c-37.22,42.7-43.85,103.72-29.05,156.92c15.95,57.33,57.34,102.94,105.94,135.51
			c28.45,19.07,59.47,34.04,91.4,46.27c0-0.96,0-1.93,0-2.89c-38.49,14.36-80.27,14.75-120.19,6.57
			c-40.69-8.34-79.3-24.8-115.58-44.75c-36.85-20.27-71.78-44.05-104.14-70.92c-32.08-26.64-62.87-56.17-88-89.56
			c-23-30.56-39.51-64.91-47.03-102.5c-7.08-35.39-6.53-72.19,0.49-107.54c7.05-35.52,20.56-69.75,39.82-100.43
			c19.7-31.4,45.65-58.73,75.21-81.03c29.56-22.3,62.72-39.71,97.58-52.13c35.12-12.51,71.98-20.08,109.17-22.62
			c9.05-0.62,18.11-0.93,27.18-0.96C720.71,219.07,720.71,216.07,718.78,216.08L718.78,216.08z"/>
	</g>
</g>
</svg>
